HIERARCHY
ROOT hip
{
	OFFSET 0.000000 0.000000 0.000000 
	CHANNELS 6 Xposition Yposition Zposition Xrotation Zrotation Yrotation
	JOINT abdomen
	{
		OFFSET 0.000000 3.402643 0.000000 
		CHANNELS 3 Xrotation Zrotation Yrotation
		JOINT chest
		{
			OFFSET 0.000000 8.438565 -0.680529 
			CHANNELS 3 Xrotation Zrotation Yrotation
			JOINT neck
			{
				OFFSET 0.000000 10.207942 -0.272212 
				CHANNELS 3 Xrotation Zrotation Yrotation
				JOINT head
				{
					OFFSET 0.000000 3.130431 0.000000 
					CHANNELS 3 Xrotation Zrotation Yrotation
					End Site
					{
						OFFSET 0.000000 3.130435 0.000000 
					}
				}
			}
			JOINT lCollar
			{
				OFFSET 3.470700 6.669187 -0.816635 
				CHANNELS 3 Yrotation Zrotation Xrotation
				JOINT lShldr
				{
					OFFSET 3.198488 0.000000 0.000000 
					CHANNELS 3 Zrotation Yrotation Xrotation
					JOINT lForeArm
					{
						OFFSET 10.139888 0.000000 0.000000 
						CHANNELS 3 Yrotation Zrotation Xrotation
						JOINT lHand
						{
							OFFSET 8.370511 0.000000 0.000000 
							CHANNELS 3 Zrotation Yrotation Xrotation
							End Site
							{
								OFFSET 4.083176 0.000000 0.000000 
							}
						}
					}
				}
			}
			JOINT rCollar
			{
				OFFSET -3.470700 6.669187 -0.816635 
				CHANNELS 3 Yrotation Zrotation Xrotation
				JOINT rShldr
				{
					OFFSET -3.198488 0.000000 0.000000 
					CHANNELS 3 Zrotation Yrotation Xrotation
					JOINT rForeArm
					{
						OFFSET -10.139888 0.000000 0.000000 
						CHANNELS 3 Yrotation Zrotation Xrotation
						JOINT rHand
						{
							OFFSET -8.370511 0.000000 0.000000 
							CHANNELS 3 Zrotation Yrotation Xrotation
							End Site
							{
								OFFSET -4.083176 0.000000 0.000000 
							}
						}
					}
				}
			}
		}
	}
	JOINT lThigh
	{
		OFFSET 5.308129 -1.633274 1.361059 
		CHANNELS 3 Xrotation Zrotation Yrotation
		JOINT lShin
		{
			OFFSET -2.041588 -20.007561 0.000000 
			CHANNELS 3 Xrotation Zrotation Yrotation
			JOINT lFoot
			{
				OFFSET 0.000000 -19.190928 -1.224953 
				CHANNELS 3 Xrotation Yrotation Zrotation
				End Site
				{
					OFFSET 0.000000 -2.449906 4.627600 
				}
			}
		}
	}
	JOINT rThigh
	{
		OFFSET -5.308129 -1.633274 1.361059 
		CHANNELS 3 Xrotation Zrotation Yrotation
		JOINT rShin
		{
			OFFSET 2.041588 -20.007561 0.000000 
			CHANNELS 3 Xrotation Zrotation Yrotation
			JOINT rFoot
			{
				OFFSET 0.000000 -19.190928 -1.224953 
				CHANNELS 3 Xrotation Yrotation Zrotation
				End Site
				{
					OFFSET 0.000000 -2.449906 4.627600 
				}
			}
		}
	}
}
MOTION
Frames: 18
Frame Time: 0.016667
-0.416709 48.142395 -0.283498 -4.313210 -3.239171 -2.475030 25.723457 -1.776060 2.178504 -19.261143 -1.921177 3.009394 -0.841021 -3.045763 -19.090570 -2.787574 1.800364 -20.645287 -1.464872 -0.165766 -0.009762 -77.864868 6.070313 -45.211021 -6.098118 3.534241 42.967113 -14.640644 20.816860 -5.312751 8.164058 -0.030684 -0.009667 78.957260 -1.232722 3.215417 55.544861 -1.177382 12.625756 16.195585 -5.960883 -1.748443 -17.363823 5.153880 -3.729162 16.355593 -1.598957 -1.731546 -1.379022 3.304086 -12.044027 17.601685 1.230935 2.565020 28.443817 1.162903 2.452270 -17.518188 -6.698649 10.027766 
-0.184180 48.277267 0.857348 -4.485003 -2.507576 -2.394986 25.462109 -2.254613 1.905512 -19.493965 -1.745746 2.940765 -0.975586 -3.092324 -18.045231 -3.116257 1.812323 -19.609787 -1.289157 -0.556421 -0.009763 -78.126152 5.384694 -44.941124 -6.674714 3.504662 42.516315 -14.630293 20.284159 -5.179987 8.515561 -0.372540 -0.009658 79.519287 -3.755342 3.325665 54.761238 -1.149273 12.272485 16.764664 -6.563916 -1.982698 -16.273094 4.109991 -3.547740 16.984541 -1.581882 -1.762612 -0.796766 3.400351 -12.074467 18.304794 0.342150 2.357603 28.825611 1.147772 2.458300 -13.660270 -7.371004 10.265171 
0.044971 48.386059 1.910354 -4.574736 -1.980665 -2.413705 25.441088 -2.449979 1.788398 -19.930542 -1.706780 2.911191 -1.270104 -2.869583 -16.847960 -3.502262 1.288826 -18.295670 -1.484510 -0.790763 -0.009761 -78.462204 4.854420 -45.113720 -7.836067 3.477203 42.128159 -15.348215 19.300243 -5.190963 8.808474 -0.714386 -0.009650 80.092667 -5.937698 3.591874 52.717346 -1.189730 12.793869 17.414082 -7.091700 -2.228639 -15.318455 3.289973 -3.328418 17.632133 -1.559692 -1.822813 -1.211170 3.449738 -12.038156 17.522026 -0.693391 0.277646 31.991510 1.023751 2.635100 -8.934470 -6.711737 10.952714 
0.274108 48.494854 2.963295 -4.664566 -1.453757 -2.442354 25.420132 -2.655108 1.681051 -20.367361 -1.677578 2.872149 -1.555290 -2.642658 -15.642179 -3.898603 0.775281 -16.964462 -1.670098 -1.034872 -0.009760 -78.801010 4.313548 -45.273479 -8.991458 3.455472 41.747303 -16.072382 18.318577 -5.181327 9.101563 -1.054688 0.000180 80.666252 -8.121576 3.842191 50.684090 -1.250944 13.309485 18.075932 -7.605077 -2.483562 -14.374533 2.460746 -3.151015 18.279882 -1.552999 -1.836314 -1.605441 3.489027 -11.995168 16.780510 -1.757616 -1.792900 35.157116 0.868533 2.778282 -4.217905 -5.973598 11.594437 
0.492649 48.570839 3.957949 -4.725609 -1.053512 -2.705698 25.535208 -2.791823 1.642482 -20.696514 -1.609277 2.891678 -2.155183 -2.374489 -14.378125 -4.237741 0.103501 -15.527352 -1.777567 -1.308291 -0.009758 -78.575859 3.777721 -35.692627 -10.120491 2.858708 34.434528 -16.323023 18.240118 -5.245457 9.325994 -1.066036 -0.009635 80.985748 -9.851346 3.758811 47.956078 -1.377708 15.308520 19.068279 -7.524288 -2.602360 -13.345869 1.786541 -2.786740 18.789906 -1.542983 -1.861818 -2.942858 3.506469 -11.905113 14.868270 -2.675558 -2.894758 39.763969 0.643748 3.029424 -0.941339 -6.490519 11.934862 
0.711179 48.646816 4.952558 -4.790330 -0.653419 -2.969002 25.660509 -2.918780 1.603462 -21.025124 -1.531225 2.910943 -2.754468 -2.092372 -13.124161 -4.588839 -0.549408 -14.073009 -1.875270 -1.581712 -0.009757 -78.452240 3.214239 -26.126606 -11.313188 2.408947 27.113901 -16.581545 18.172703 -5.302763 9.550601 -1.075839 -0.009629 81.320496 -11.589561 3.660799 45.248486 -1.600840 17.300262 20.070122 -7.441243 -2.720373 -12.316327 1.122452 -2.444735 19.318607 -1.543075 -1.889555 -4.279345 3.526392 -11.823346 12.972956 -3.622305 -3.978196 44.359673 0.389759 3.235245 2.348393 -6.953983 12.286459 
0.904389 48.692326 5.868522 -4.808001 -0.428901 -3.466919 25.933826 -2.977393 1.574201 -21.181484 -1.345930 2.900966 -3.783653 -1.663378 -11.792276 -4.874943 -1.497247 -12.436004 -1.758134 -1.884466 -0.009756 -77.587982 2.395175 -16.032206 -13.392399 1.772361 20.745308 -16.206335 17.881552 -5.107760 9.716687 -0.655945 -0.009625 81.224205 -12.599571 3.043290 42.281574 -1.783277 20.569586 21.581343 -7.859237 -3.106443 -11.307215 0.634221 -1.914761 19.828342 -1.523786 -1.932780 -6.029558 3.502761 -11.709641 9.885007 -4.342580 -4.474881 49.664371 0.089169 3.475478 3.591828 -8.236582 12.506172 
1.097595 48.737835 6.784475 -4.829570 -0.204587 -3.964889 26.207209 -3.036007 1.544940 -21.338108 -1.160621 2.900982 -4.804121 -1.219625 -10.461577 -5.178008 -2.446172 -10.801071 -1.631234 -2.196988 -0.009755 -76.889023 1.434236 -5.963391 -15.523812 1.369831 14.371008 -15.830549 17.600790 -4.910013 9.873047 -0.234375 0.000040 81.135628 -13.620895 2.427706 39.341496 -2.140975 23.822943 23.096674 -8.261853 -3.518560 -10.292374 0.136539 -1.383594 20.338274 -1.504283 -1.966098 -7.767966 3.487291 -11.623484 6.808980 -5.101942 -4.895331 54.978218 -0.214255 3.662220 4.864371 -9.503971 12.759812 
1.245881 48.788280 7.658792 -4.830102 -0.175251 -4.453164 26.489685 -3.026469 1.378642 -21.247278 -0.760852 2.734523 -6.048840 -0.646059 -9.102191 -5.356914 -3.597634 -9.022168 -1.611678 -2.050507 -0.009756 -75.992401 0.254215 1.804692 -18.173550 0.945726 10.518116 -14.925809 16.436239 -4.331427 9.960971 0.193623 -0.009651 80.993111 -13.696796 1.160654 35.544048 -2.294949 27.159273 23.809397 -8.576739 -3.776773 -9.265836 -0.205275 -1.460195 20.592686 -1.504401 -1.979424 -9.037835 4.071379 -11.456838 3.417260 -5.321608 -4.792484 59.032650 -0.469967 3.795952 4.599711 -11.013546 12.807229 
1.394162 48.838741 8.533109 -4.822208 -0.136211 -4.941439 26.782593 -3.007151 1.202592 -21.158394 -0.351207 2.578137 -7.270121 -0.038705 -7.753911 -5.578707 -4.756951 -7.232284 -1.582357 -1.913793 -0.009756 -75.265358 -1.039185 9.544681 -20.853226 0.698829 6.661160 -14.032655 15.263970 -3.771824 10.039166 0.613532 -0.009720 80.855011 -13.780429 -0.117966 31.768942 -2.666835 30.473452 24.523396 -8.877653 -4.039091 -8.233256 -0.536772 -1.533596 20.856621 -1.513398 -1.984992 -10.296741 4.653356 -11.286725 0.018709 -5.541990 -4.657862 63.087372 -0.724551 3.893985 4.333308 -12.507722 12.839984 
1.488025 48.923439 9.414742 -4.797165 -0.301523 -5.127036 26.940104 -2.851249 0.850500 -20.888000 0.273238 2.187568 -8.415373 0.669582 -6.435905 -5.617705 -6.056976 -5.421239 -1.621312 -1.279021 -0.009759 -74.784004 -2.617085 14.469928 -23.287554 0.543677 5.243334 -13.332553 14.944947 -3.506449 10.000147 0.867445 -0.009764 81.353355 -13.453259 -5.339457 27.709509 -2.920921 38.026516 24.318354 -8.194616 -3.697145 -7.051747 -0.565781 -1.253750 20.768860 -1.503714 -1.988531 -11.221481 4.607972 -11.207702 -2.850771 -5.290539 -4.560876 64.753082 -0.849575 3.937658 3.820833 -13.130359 12.719035 
1.581883 49.008141 10.296380 -4.771052 -0.466736 -5.312721 27.095781 -2.685445 0.498415 -20.616358 0.897996 1.797114 -9.529988 1.400623 -5.128282 -5.699919 -7.358625 -3.604780 -1.650501 -0.644250 -0.009761 -74.443237 -4.223061 19.391247 -25.735659 0.447166 3.820233 -12.642552 14.623471 -3.239707 9.961125 1.121358 -0.009808 81.810066 -13.094212 -10.550817 23.723103 -3.710497 45.539417 24.107338 -7.501206 -3.354316 -5.876848 -0.605397 -0.973732 20.671009 -1.503801 -1.983424 -12.146770 4.567425 -11.116421 -5.729406 -5.026234 -4.456395 66.428688 -0.956685 3.988870 3.285933 -13.780944 12.610054 
1.631172 49.119061 11.200342 -4.715735 -0.778160 -5.098246 27.118734 -2.392578 0.009757 -20.325037 1.689064 1.231085 -10.396467 2.240925 -3.889470 -5.562699 -8.765185 -1.819039 -1.591779 0.107693 -0.009780 -74.277214 -6.044297 22.308073 -27.463865 0.433420 3.719750 -12.677043 14.820307 -3.302303 9.638877 1.219068 -0.009833 82.378792 -12.690208 -20.268984 20.997829 -3.974484 55.855549 23.059719 -7.813232 -3.323531 -4.594947 -0.429412 -1.108493 20.366322 -1.523172 -1.970625 -12.910267 4.454742 -11.126970 -7.845140 -4.585525 -4.677925 65.834518 -0.917724 3.969492 2.050889 -13.255100 12.314578 
1.680458 49.229988 12.104300 -4.672330 -1.089764 -4.893548 27.146366 -2.089771 -0.478910 -20.048820 2.490062 0.674889 -11.247121 3.092374 -2.659755 -5.471511 -10.166013 -0.040173 -1.523293 0.849869 -0.009906 -74.200089 -7.871072 25.246218 -29.192108 0.419285 3.625767 -12.719934 15.028192 -3.357976 9.316628 1.316779 -0.009859 82.861755 -12.206005 -29.955450 18.361637 -4.712711 66.152344 22.021601 -8.135041 -3.287480 -3.301834 -0.253496 -1.220713 20.071341 -1.542539 -1.958246 -13.655043 4.331137 -11.112854 -9.963221 -4.146642 -4.935090 65.249756 -0.878738 3.959747 0.830110 -12.727783 12.028932 
1.701167 49.333488 13.007736 -4.566966 -1.441063 -4.396086 27.131905 -1.786818 -1.035871 -19.919006 3.359374 0.049316 -11.847250 4.090348 -1.527219 -5.202087 -11.538342 1.643217 -1.318101 1.513897 -0.010018 -74.197258 -9.784217 26.952917 -30.279331 0.442998 3.815014 -13.404918 15.436563 -3.637613 8.955317 1.414496 -0.009885 82.899017 -12.358565 -40.272564 17.564631 -4.845774 73.400887 20.540756 -9.905844 -3.668702 -2.012420 -0.019412 -1.610465 19.709417 -1.539204 -1.938705 -14.429132 4.154028 -11.084871 -11.588490 -3.778141 -5.461133 63.018726 -0.722395 3.901990 -0.530617 -11.433773 11.783865 
1.721874 49.436996 13.911164 -4.477159 -1.792699 -3.908307 27.111301 -1.483809 -1.582765 -19.797932 4.247839 -0.567744 -12.419401 5.097525 -0.411137 -4.985575 -12.928005 3.335480 -1.103144 2.177922 -0.010128 -74.262077 -11.687850 28.680382 -31.366985 0.453792 4.006244 -14.089909 15.833413 -3.915458 8.584238 1.502449 -0.009909 82.962318 -12.499797 -50.598274 16.776228 -5.072727 80.649651 19.064117 -11.682816 -4.014620 -0.738875 0.204385 -2.014593 19.348703 -1.533359 -1.889647 -15.201134 3.965743 -11.065016 -13.217072 -3.396705 -5.996840 60.777058 -0.576037 3.851694 -1.882801 -10.123005 11.576902 
1.713749 49.497944 14.787870 -4.304514 -2.086437 -3.273935 27.128115 -1.297940 -2.119703 -19.858562 5.135695 -1.146732 -12.767820 6.152009 0.599598 -4.730659 -14.024032 4.840920 -0.966366 2.529462 -0.010186 -74.029167 -13.583015 29.642740 -32.068439 0.459023 4.108963 -15.308391 16.022013 -4.328621 8.398717 1.658730 -0.009940 82.517670 -13.545861 -56.435181 16.760654 -5.084965 81.093002 19.205723 -12.377644 -4.281097 0.316799 0.474102 -2.543554 19.123125 -1.543416 -1.869605 -15.974627 3.925037 -11.033693 -14.526190 -3.045422 -6.507774 57.268730 -0.351343 3.742712 -2.871976 -8.956893 11.501786 
1.705618 49.558884 15.664575 -4.147275 -2.390025 -2.649068 27.141634 -1.112076 -2.666651 -19.926453 6.022700 -1.717992 -13.109284 7.204235 1.604945 -4.512109 -15.116259 6.343289 -0.829585 2.890766 -0.010245 -73.822647 -15.494284 30.603743 -32.770676 0.471139 4.209062 -16.516447 16.204029 -4.739279 8.203431 1.815013 -0.009970 82.181030 -14.633472 -62.292671 16.747036 -5.094907 81.544754 19.351021 -13.071447 -4.552399 1.389061 0.749152 -3.078819 18.877645 -1.566071 -1.830871 -16.737139 3.875876 -11.018236 -15.824039 -2.723119 -7.032946 53.770016 -0.146240 3.602385 -3.863819 -7.769027 11.478622 
